<svg xmlns="http://www.w3.org/2000/svg" viewBox="0 0 85.59 35.04"><path d="M4.18 26.3c0-3.48-.26-6.94-.36-10.41v-1l.15.36a28.55 28.55 0 001.84 3.92 18 18 0 011.52 3.94.65.65 0 00-.2.6c0 .15.06.24.21.3.54.46 1.55.23 2.12 0a5.58 5.58 0 00.69-.35c.29-.18.75-.57.62-1 0-.08-.05-.16-.08-.23a20.53 20.53 0 00.82-3.31 21.08 21.08 0 011.09-3.49c0 .52.09 1.05.13 1.56.17 2.15 0 4.27 0 6.43a9.6 9.6 0 00.18 2.07 9 9 0 01.24 1.58c-.52.48-.37 1.06.32 1.21a2.81 2.81 0 002.33-.62c1-.94.54-2.4.31-3.58-.39-2 .08-4.18 0-6.18-.07-2.26-.43-4.51-.4-6.77 0-1.83.32-3.72-.31-5.47l.12-.6c.16-.88-2.75-.42-3.21.39-.29.23-.44.52-.31.8 0 .07.05.15.08.22a64.3 64.3 0 01-2.21 7.93c-.34 1-.75 2-1.09 3a30.06 30.06 0 01-1.38-2.88c-1.15-2.89-2.2-5.81-3.61-8.59C4 4.84 1.1 5 .53 6.15a7.31 7.31 0 00-.37 4.39 36.9 36.9 0 01.32 5.15c0 3.34.3 6.69.35 10a.86.86 0 00-.07 1.16 2.33 2.33 0 00.48.46c.76.69 2.94.15 2.94-1.01zM22.37 7.92c-.08-.61-3.41.09-3.3.89a33 33 0 01.14 5.35 32 32 0 00.62 5c.22 1.73-.08 3.5.12 5.24.09.81.63 2.31.08 3-.36.44 1.23.28 1.31.27a3.27 3.27 0 001.93-.87c.56-.7.17-2.05.05-2.82a44.46 44.46 0 01-.16-5.29c-.06-1.68-.65-3.25-.65-4.95a40.24 40.24 0 00-.14-5.82zm3.13 6.65c.91 2.51 4.65 1.33 6.55 1.47 3.24.24 2.27 4.61 2.31 6.64 0 1.09 1 2.89.18 3.8-.5.56-1.67.59-2.35.65s-1.85.26-2.31-.39c-.84-1.2.07-3.2-.1-4.57-.11-.78-3.43-.08-3.3.88.29 2.21-1.18 5.18 2 5.56a15.41 15.41 0 006.32-.78 7.71 7.71 0 002.73-1.51c.87-.8.58-2 .35-3-.57-2.46.61-5.29-1-7.45-1.74-2.35-5-.66-7.21-1.3-1.16-.33-1.18-1.91-1.17-2.86a31.3 31.3 0 00-.23-3.49 2.87 2.87 0 01.63-2.45 3.47 3.47 0 01.68-.28 8.37 8.37 0 01.9-.08c1.3 0 3.88.2 3.38 2.1-.22.85 3 .36 3.27-.53 1-3.88-6.14-3.13-8.16-2.6-1.86.5-3.92 1.56-4 3.71-.05 1 .23 2 .27 3a11.13 11.13 0 00.26 3.48zM40 16.44c-.05 1.8-.2 3.59-.22 5.39a19.41 19.41 0 00.22 2.75 7 7 0 01.15 2.8c-.19.65 3 .24 3.26-.59.46-1.49-.19-3.4-.34-4.92a25.15 25.15 0 01.07-4.42 25.77 25.77 0 015.12 0c.07 1.17.16 2.32.27 3.48.09 1 .15 1.95.16 2.93a8.92 8.92 0 01-.18 2.92c-.65 1.73 2.65 1.59 3.13.3a13 13 0 00.33-5.2c-.13-2.06-.41-4.1-.47-6.16-.1-3.19-.58-6.33-.6-9.51 0-1.67-3.33-1.1-3.33.28 0 3 .42 6 .57 9.07a1.09 1.09 0 010 .18c-1.64 0-3.28.15-4.93.21.18-3.9-.51-7.77-.36-11.67 0-.5-3.26-.08-3.3.88-.12 3.77.52 7.51.45 11.28zm14 5.37c-.25.26-.16.42 0 .51 0 1.47 0 2.95-.18 4.42-.4.63.39 1 .91 1h.08c.63 0 2.21-.29 2.29-1.15a52.16 52.16 0 00.2-5.3 26.56 26.56 0 003.42-4.74 24.57 24.57 0 011.67 3.86c.73 2.31 1.94 4.43 2.64 6.75.46 1.52 3.75.62 3.3-.89-.7-2.32-1.86-4.46-2.64-6.75a62 62 0 00-3-6.57c.85-1.64 1.7-3.28 2.47-5 .7-1.52 1.22-3.21 2.6-4.28.48-.38.46-.76-.22-.81a3.69 3.69 0 00-2.33.63 9 9 0 00-2.7 3.59c-.78 1.73-1.6 3.43-2.45 5.12l-.19.37a1 1 0 00-.54 1.07c-.67 1.31-1.35 2.63-2.1 3.88-.26-4.66-.81-9.31-1-14 0-1.07-3.35-.4-3.3.89.2 5.78 1 11.55 1.08 17.34zm31.54-6.23c-.18-.7-1.16-.72-1.92-.65v-.85c-.1-2.24-.13-4.53-.32-6.76-.18-2.07-1.3-2.81-3.3-2.74a20.44 20.44 0 00-6.3 1.19 5.88 5.88 0 00-3.84 4.78c-.47 2.54.2 5.24.31 7.79.13 2.95.06 5.91 0 8.86 0 .48 3.3 0 3.3-.89v-7c0-.69 0-1.37-.08-2.06 1.15-.5 3.1 0 4.25.12a13.08 13.08 0 002.73-.24c0 1.94.09 3.9.17 5.85 0 1 .4 3-.29 3.8-.37.43 1.24.29 1.31.28a3.4 3.4 0 001.93-.87c.8-.94.39-3.19.34-4.32-.06-1.61-.08-3.22-.12-4.83.97-.15 2.04-.75 1.86-1.46zm-6.66-.16a24.88 24.88 0 00-5.66 0c-.08-1-.18-2.09-.25-3.15-.13-2 .1-4.7 1.93-5.9a6.15 6.15 0 012-.36 3.09 3.09 0 012.39.16c1 .67.76 3.08.76 4.1 0 1.69.18 3.37.26 5.06a13.19 13.19 0 01-1.4.09zM18.7 4.1a.57.57 0 00.12.5v.39a.79.79 0 00.37.45 1.82 1.82 0 001.1.2 2.65 2.65 0 001.25-.44l.22-.2c.44-.28.82-.69.62-1.14A6.36 6.36 0 0122 1c0-.81-.82-1-1.5-1s-1.8.5-1.81 1.29a13.26 13.26 0 00.1 2.52 1.4 1.4 0 00-.09.29zm61.58 29.18a19.94 19.94 0 00-4.85-.78c-1.61-.17-3.25-.41-4.89-.56-1.64 0-3.31 0-5 .12l-4.88.27c-6.49.29-13 .26-19.52.11S28.13 32 21.54 32c-3.29 0-6.56.1-9.86.25-1.63.28-3.24.5-4.9.91A31 31 0 012 34.2a23 23 0 005 .29c1.58 0 3.25.15 4.88.24 3.23-.18 6.48-.25 9.73-.25 6.49 0 13 .32 19.56.45s13.12.18 19.69-.11l4.9-.27c1.61-.07 3.2-.13 4.83-.07 1.63-.15 3.26-.33 4.92-.53a22.49 22.49 0 014.86-.51h.07v-.06a3.58 3.58 0 000-.48c-.13.1-.13.27-.16.38z"/></svg>