<svg xmlns="http://www.w3.org/2000/svg" viewBox="0 0 149 72"><path d="M144.11 31.1a37.67 37.67 0 01-4.68 2.74 17 17 0 00-.59-5.07c0-.33.1-.66.14-1 .38-3 .66-7.06-2-9.14-.35-.25-1.26 0-1.94.28a4.11 4.11 0 00-.5-.42c-.08-.23-.16-.48-.23-.72s-.17-.19-.36-.22c.29-.37.26-.81-.43-1.08-.38-.14-.76-.28-1.14-.4-.07-.08-.13-.1-.17-.06a20.79 20.79 0 00-2.88-.69 4.56 4.56 0 01.55-1 6 6 0 01.43-.44l.19-.17.07-.06.08-.06c.39-.28.86-.86.24-1.19a2.17 2.17 0 00-2 .23 6.5 6.5 0 00-2.1 2.35 50 50 0 00-6.12-.08.77.77 0 00.14-.25c.18-.58-.92-.52-1.2-.48l-4.72.59c1.38-3.73 3.11-8.48 1-12.14-1.22-2.09-4-2.55-6.14-2.63a14 14 0 00-7 1.61c-4.79 2.6-7.16 7.64-8.27 13a1.88 1.88 0 00-2.6.38l-.06.09c-.12.32-.22.63-.33 1a1.7 1.7 0 00-.35.63.49.49 0 010 .17h-.19l.06-.31a.57.57 0 00.28-.35 59.58 59.58 0 012-6.76c.27-.75-2.53-.39-2.83.42a61.59 61.59 0 00-1.13 3.58.92.92 0 00-.42.33v.1a.9.9 0 00-.47-.17v-1c0-.42-2.84 0-2.84.74v1.58a2.27 2.27 0 00-.48.27l-.19.16a.42.42 0 00-.12.25v.14a.29.29 0 000 .43 1.21 1.21 0 00.75.15h.14V17h-1.11c0-.39-.69-.46-1.36-.33a.38.38 0 000-.15c-.1-.59-.17-1.17-.22-1.77a3.79 3.79 0 00.68-.3c.15-.11.33-.23.33-.43v-.2c0-.18-.42-.2-.51-.21a2.81 2.81 0 00-.58 0 14.28 14.28 0 01-.35-3.86c0-.83-2.84-.3-2.84.75a49.13 49.13 0 00.19 5.29h-.27v-1.5c0-1-1.3-1.21-2.16-.8a1 1 0 00.37-1 29 29 0 01-1-4.24c-.18-1.38-3-.67-2.84.75a29.51 29.51 0 001 4.25c.24.81 1.34.87 2.12.5a1 1 0 00-.37.76v.62a1.61 1.61 0 00-.78-.16c-1.06 0-1.69.87-1.41 1.46l-.5-.08a14.51 14.51 0 01-.72-3.8c0-.93-1.27-1-2.12-.66a.48.48 0 000-.17 12.94 12.94 0 01-.78-2.5c-.34-1.34-3.18-.6-2.84.74.16.63.3 1.27.52 1.88h-.06a2.78 2.78 0 00-.86.39c-.83.08-1.84.56-1.76 1.2.06.47.13 1 .21 1.41L64 15a12 12 0 01-.62-2.43c-.13-.91-1.57-.84-2.35-.25a22.57 22.57 0 00-3.13-5.69c-2.65-3.4-7.15-4.56-11.32-3.75a9.08 9.08 0 00-5 2.61 5.9 5.9 0 00-1.27 4.74 18.69 18.69 0 001.59 5.94 2.33 2.33 0 00-1 .13c-.29.12-.57.24-.85.38-2 0-3.89 0-5.83-.07-4.21-.18-8.36-.85-12.59-.73-.92 0-1.54.71-1.47 1.25A4.28 4.28 0 0018 19.4a51.89 51.89 0 00-5.37-3.18c-.69-.35-3.32.7-2.3 1.21a51.75 51.75 0 015.31 3.18 2.21 2.21 0 001.85-.07l.18-.08a9.32 9.32 0 00.24 4.45.59.59 0 00.17.27 8.17 8.17 0 000 1 .43.43 0 000 .16 1.19 1.19 0 00-.77.83 41.93 41.93 0 00-.3 4.19 1.12 1.12 0 00-.49.79A48.46 48.46 0 0017 42a73.07 73.07 0 001.18 7.92c.06.42.12.82.17 1.24a9.31 9.31 0 00-.24 3.45c-.89.16-1.74.86-1.24 1.6a8.76 8.76 0 002.63 2.62 2.35 2.35 0 00-1.89.55c-.82.8-1.73 1.51-2.55 2.31a.59.59 0 00-.17.81.58.58 0 00.46.26 2.32 2.32 0 002-.53c.82-.79 1.72-1.52 2.55-2.32a.6.6 0 00.2-.72c3.23 1.72 7.29 1.26 11.2 1a34.65 34.65 0 00-2.19 5c-.26.71 2.53.38 2.82-.42a33.2 33.2 0 012.11-4.86c3.77.12 7.53.12 11.3 0a1 1 0 00.74.34 35.52 35.52 0 009.76-.69c4.82-.23 9.64-.52 14.46-.81 7.57-.17 15.1-.33 22.74-.31l.32.31a1.27 1.27 0 001 .33h.21c.71 0 1.43.09 2.15.14a1.75 1.75 0 00.56 0l2.37.21a1.18 1.18 0 00.79.35c3.83.25 7.67.52 11.5.7a1 1 0 00.83.33c7.11.06 15.38 2.79 21.7-1.71.5-.36.27-.87-.26-1a1.82 1.82 0 00-.33 0 59.4 59.4 0 003-8.48 1 1 0 00.64-.85 33.54 33.54 0 01.38-3.6c.16-.87.32-1.75.45-2.63.38-2.14.8-4.32 1-6.48a50.27 50.27 0 006.65-3.84c1.54-1.1-.83-1.86-1.89-1.12zm-55.7-14.85l-.13.12q.1-.47.24-.93h.07zm-24.73-3.74c.13.19.56.21.76.21a2.82 2.82 0 001.11-.22c.41-.16 1.11-.55.78-1.06s-.62-1.17-1-1.74c-.12-.19-.56-.21-.75-.21a3.23 3.23 0 00-1.11.22c-.41.17-1.12.56-.78 1.06s.63 1.23.99 1.74zm-42.86-1.7c.22.63 1.11.63 1.66.5s1.4-.61 1.19-1.25a4.77 4.77 0 00-.91-1.76 1.69 1.69 0 00-1.91-.15c-.42.19-1.19.83-.7 1.33a3.11 3.11 0 01.67 1.33zm10.06 3c.85 0 3.09-1.27 1.2-1.27-.87 0-3.12 1.26-1.22 1.26zm92.52-1.61a2.55 2.55 0 002-.53 5.16 5.16 0 001-1.17.47.47 0 000-.58 1.19 1.19 0 00-.77-.25 2.82 2.82 0 00-1.11.22 1.61 1.61 0 00-.76.55 3.54 3.54 0 01-.35.51l-.2.2a.67.67 0 00-.29.6.69.69 0 00.44.44zm13.39 5.36a3.61 3.61 0 001.9-.65 21.08 21.08 0 003.65-3.6c.29-.39-1-.24-1.13-.23a2.82 2.82 0 00-1.67.73 19.66 19.66 0 01-3.41 3.35c-.52.39.42.41.64.39zm11 26.82h-4.9a1.61 1.61 0 00-1.57 1.13c-.1.73.76.91 1.31.91h4.91a1.63 1.63 0 001.5-1.14c.13-.68-.72-.91-1.27-.91zM57.38 60.19c-.5.08-1.42.3-1.65.83a33.26 33.26 0 00-1.37 3.85c-.21.74 2.59.34 2.82-.44a30.49 30.49 0 011.37-3.86c.24-.52-.96-.41-1.17-.38zM62 62.76a4.33 4.33 0 00-1 .15 3.9 3.9 0 00-1 .38c-.14.08-.34.2-.34.39V64a.6.6 0 01-.13.28c-.06.08-.11.18 0 .25a1.27 1.27 0 00.72.06 4.76 4.76 0 001.18-.24 2.17 2.17 0 00.8-.41.82.82 0 00.28-.49 1.91 1.91 0 000-.53c0-.18-.46-.18-.53-.18zm55.42 3.64c-.36-.68-3 .32-2.84.75.84 1.62 2 3.09 2.94 4.63.44.68 3-.41 2.84-.75-1-1.54-2.07-3-2.92-4.63zm4.11-2.32c-.29-.57-1.06-.55-1.63-.4-.35.08-1.5.59-1.2 1.15l1.17 2.32c.3.58 1.08.56 1.63.41.36-.09 1.5-.6 1.21-1.16zM5.71 42.69c-1.5.35-3 .57-4.51 1-.55.14-1.36.63-1.2 1.31s1.13.7 1.67.56c1.49-.4 3-.61 4.51-1 .54-.13 1.35-.66 1.17-1.31s-1.1-.67-1.64-.56z"/><path d="M44 39.72c-.08-2.68-.51-5.34-.48-8 0-2.18.4-4.4-.37-6.49.06-.23.11-.47.15-.71.2-1-3.33-.49-3.88.47a.83.83 0 00-.38 1 .66.66 0 00.11.26 76.81 76.81 0 01-2.67 9.4c-.4 1.19-.9 2.35-1.32 3.54-.61-1.1-1.17-2.22-1.67-3.38-1.39-3.43-2.65-6.93-4.35-10.2.19-1.52-3.25-1.36-3.93 0a8.47 8.47 0 00-.45 5.21 46.14 46.14 0 01.37 6.1c0 4 .36 7.92.42 11.88a1 1 0 00-.09 1.38 3.23 3.23 0 00.57.54c.93.73 3.56.11 3.55-1.26 0-4.12-.31-8.24-.42-12.35v-1.26l.18.44a33.58 33.58 0 002.22 4.65 20.79 20.79 0 011.83 4.67.76.76 0 00-.23.71.33.33 0 00.25.35c.65.56 1.87.28 2.55 0a6.58 6.58 0 00.84-.42c.34-.21.9-.68.74-1.16l-.09-.28a23.44 23.44 0 001-4 25.12 25.12 0 011.32-4.13l.12 1.9c.21 2.55 0 5.06 0 7.62a11.92 11.92 0 00.22 2.46 10 10 0 01.29 1.89.75.75 0 00-.28 1 .78.78 0 00.67.38 3.46 3.46 0 002.82-.74c1.22-1.11.64-2.84.36-4.24-.41-2.23.15-4.85.03-7.23zm8.5.68c-.07-2-.78-3.86-.79-5.87a48 48 0 00-.16-6.89c-.1-.72-4.12.11-4 1.05a37.53 37.53 0 01.16 6.36 39.54 39.54 0 00.76 5.95c.27 2.06-.09 4.16.15 6.21.11 1 .77 2.74.09 3.58-.42.53 1.49.34 1.58.33a4.1 4.1 0 002.34-1c.66-.83.2-2.43.06-3.36a51.14 51.14 0 01-.15-6.36zm16.59-3.32c-2.1-2.78-6-.78-8.7-1.54C59 35.15 59 33.27 59 32.15a36 36 0 00-.26-4.15 3.36 3.36 0 01.75-2.9 5 5 0 01.83-.34 9.81 9.81 0 011.09-.09c1.57-.07 4.68.23 4 2.48-.26 1 3.66.43 3.95-.64 1.23-4.59-7.4-3.71-9.85-3.07-2.24.59-4.72 1.85-4.85 4.39-.06 1.22.28 2.38.33 3.59.06 1.38-.2 2.77.3 4.12 1.1 3 5.6 1.57 7.9 1.74 3.9.28 2.74 5.46 2.79 7.92 0 1.29 1.2 3.42.22 4.5-.61.67-2 .71-2.84.78s-2.24.3-2.79-.47c-1-1.41.1-3.79-.12-5.42-.07-1-4.1-.14-3.93 1 .35 2.62-1.42 6.13 2.44 6.58a18.57 18.57 0 007.62-.93 9 9 0 003.29-1.79c1-.93.71-2.34.42-3.54-.66-2.91.77-6.3-1.16-8.83zm17.59-.19c-.08-3.77-.68-7.5-.68-11.29 0-2-4-1.3-4 .34 0 3.61.51 7.17.7 10.76v.22c-2 0-4 .18-5.94.25.2-4.64-.63-9.22-.45-13.86 0-.58-3.93-.09-4 1.05-.17 4.47.6 8.91.46 13.38-.06 2.13-.25 4.26-.26 6.4a21.07 21.07 0 00.33 3.26 8 8 0 01.16 3.31c-.23.78 3.63.29 3.93-.69.55-1.78-.22-4-.41-5.83a30.68 30.68 0 01.09-5.25 30.29 30.29 0 016.17 0c.09 1.38.2 2.76.33 4.13.1 1.16.18 2.31.2 3.48a10.28 10.28 0 01-.25 3.45c-.79 2 3.2 1.89 3.78.37.72-1.87.52-4.2.4-6.16-.1-2.45-.44-4.87-.52-7.32zm17.21 4.47a73 73 0 00-3.68-7.8c1-2 2-3.89 3-5.88.85-1.8 1.47-3.81 3.13-5.09.59-.44.56-.89-.26-1a4.59 4.59 0 00-2.81.75 10.71 10.71 0 00-3.25 4.26c-1 2.11-2 4.09-3 6.07l-.23.45a1.13 1.13 0 00-.64 1.26C95.4 36 94.58 37.51 93.66 39c-.3-5.53-1-11-1.17-16.58 0-1.27-4-.49-4 1 .25 6.86 1.23 13.7 1.3 20.56-.3.31-.19.5 0 .6 0 1.75-.06 3.5-.21 5.25-.47.74.48 1.14 1.11 1.14h.09c.76 0 2.67-.35 2.77-1.37a62.66 62.66 0 00.23-6.28 31.53 31.53 0 004.12-5.63 28.67 28.67 0 012 4.58c.88 2.74 2.34 5.26 3.18 8 .56 1.8 4.53.73 4-1-.82-2.66-2.21-5.19-3.15-7.91zm23.92-4.63c-.22-.83-1.4-.85-2.31-.77V35c-.13-2.65-.17-5.38-.39-8-.22-2.46-1.61-3.34-4-3.25a24.92 24.92 0 00-7.6 1.41 7 7 0 00-4.63 5.67c-.56 3 .24 6.22.37 9.24.16 3.51.07 7 .07 10.52 0 .56 4 0 4-1v-8.43a18.19 18.19 0 00-.11-2.44c1.4-.59 3.75 0 5.13.14a15.89 15.89 0 003.3-.29c0 2.31.11 4.64.21 6.94 0 1.17.48 3.52-.37 4.5-.44.52 1.51.34 1.58.33a4.11 4.11 0 002.34-1c1-1.12.46-3.78.41-5.12-.08-1.91-.1-3.82-.14-5.73 1.07-.2 2.33-.92 2.18-1.76zM113 36.57c-.11-1.23-.22-2.48-.31-3.73-.17-2.33.12-5.58 2.32-7a7.53 7.53 0 012.4-.43 3.81 3.81 0 012.87.18c1.22.81.92 3.66.92 4.88 0 2 .21 4 .31 6a16 16 0 01-1.7.07c-2.36 0-4.66-.42-6.85 0zM49.09 24.94a3.29 3.29 0 001.5-.52l.27-.22c.52-.34 1-.83.73-1.36a7.76 7.76 0 01-.42-3.41c0-1-1-1.25-1.8-1.17s-2.21.56-2.22 1.55a17.35 17.35 0 00.16 3 2.42 2.42 0 00-.1.36.65.65 0 00.14.58v.48a.9.9 0 00.44.52 2.17 2.17 0 001.3.19z" fill="#fff"/></svg>